<?xml version="1.0" encoding="UTF-8" standalone="no"?>
<svg version="1.0" width="580" height="580" xmlns="http://www.w3.org/2000/svg">
 <metadata id="metadata10"/>
 <path id="path19" d="M 330.29532,32.415134 311.42703,51.283412 V 70.151711 H 424.63676 V 51.283412 l -18.8683,-18.868278 z m -18.86829,56.604853 c -0.62831,3.18359 0,6.406291 0,9.783571 0,27.016322 30.55362,46.821312 56.60487,46.821312 26.05126,0 56.60485,-19.80499 56.60485,-46.821312 0,-3.37728 0,-9.783571 0,-9.783571 z m -6.1e-4,75.473243 c -26.77239,0 -37.46819,35.40738 -37.73519,56.60439 v 74.19217 l 36.14343,-8.00042 95.93454,-122.79614 z m 122.64417,0 -90.01701,115.22128 118.31999,-26.19291 v -32.42398 c 0,-21.19906 -5.14858,-56.60439 -28.30298,-56.60439 z m -10.2477,135.08731 -254.02039,56.22912 c -13.07936,2.69751 -21.42382,15.58072 -18.54202,28.6274 2.88182,13.04668 15.87547,21.21158 28.87286,18.14295 l 254.75219,-56.05804 c 11.85669,-2.44542 20.02258,-13.36234 19.0244,-25.43357 -4.68694,-15.24197 -9.56252,-24.69419 -30.08704,-21.50786 z M 145.29026,283.98528 c -7.44123,0 -14.26964,2.8029 -19.52225,8.05835 -5.25263,5.25544 -8.14157,12.08751 -8.14157,15.85392 v 213.10818 c 0,7.44522 2.88894,14.36488 8.14157,19.62033 5.25261,5.25543 12.16856,8.05833 19.52224,8.05833 h 30.64029 c 7.44122,0 14.26964,-2.8029 19.52226,-8.05833 5.25262,-5.25545 8.14157,-12.08752 8.14157,-19.62033 V 307.94134 c 0,-3.7226 -2.88895,-10.64227 -8.14157,-15.89771 -5.25262,-5.25545 -12.16858,-8.05835 -19.52226,-8.05835 z M 388.74931,391.1963 c -4.20208,4.20437 -6.56576,9.63499 -6.56576,15.67874 v 116.49564 c 0,5.95618 2.27613,11.3868 6.56576,15.67874 4.20211,4.20436 9.62982,6.4817 15.67033,6.4817 h 35.71784 c 5.95297,0 11.38067,-2.27734 15.67033,-6.4817 4.20209,-4.20435 6.56576,-9.63499 6.56576,-12.65686 v -122.4956 c 0,-2.97809 -2.27612,-8.40871 -6.56576,-12.70066 -4.20211,-4.20435 -9.62982,-6.4817 -15.67033,-6.4817 h -38.69432 c -2.9765,0 -8.4042,2.27735 -12.69385,6.4817 z" opacity="0.8" fill="none" stroke="#ffffff" vector-effect="none" stroke-width="62.6"/>
 <path d="m 144.41299,257.85669 c -7.81847,0 -14.99309,2.945 -20.512,8.46689 -5.51894,5.52188 -8.55434,12.70035 -8.55434,16.6577 v 223.91256 c 0,7.82269 3.0354,15.09317 8.55434,20.61506 5.51891,5.52188 12.78551,8.46689 20.512,8.46689 h 32.19374 c 7.81849,0 14.99309,-2.94501 20.51201,-8.46689 5.51893,-5.52189 8.55434,-12.70036 8.55434,-20.61506 V 283.02729 c 0,-3.91133 -3.03541,-11.18183 -8.55434,-16.70371 -5.51892,-5.52189 -12.78551,-8.46689 -20.51201,-8.46689 z M 400.2152,370.5032 c -4.41514,4.41752 -6.89866,10.12348 -6.89866,16.47364 v 122.40185 c 0,6.25815 2.39154,11.96409 6.89866,16.47364 4.41514,4.4175 10.11804,6.81032 16.46479,6.81032 h 37.52871 c 6.25475,0 11.95765,-2.39282 16.46479,-6.81032 4.41512,-4.41751 6.89864,-10.12347 6.89864,-13.29855 V 383.84776 c 0,-3.12907 -2.39153,-8.83501 -6.89864,-13.34456 -4.41515,-4.41751 -10.11804,-6.81032 -16.46479,-6.81032 h -40.6561 c -3.1274,0 -8.83027,2.39281 -13.3374,6.81032 z" id="path4136" fill="#ffffff" isolation="auto" color-rendering="auto" white-space="normal" solid-opacity="1" mix-blend-mode="normal" color-interpolation-filters="linearRGB" shape-rendering="auto" image-rendering="auto" color-interpolation="sRGB" color="#000000" solid-color="#000000" stroke-width="0.98"/>
 <path id="rect3925" d="m 145.29026,283.43552 c -7.44123,0 -14.26964,2.8029 -19.52225,8.05835 -5.25263,5.25544 -8.14157,12.08751 -8.14157,15.85392 v 213.10818 c 0,7.44522 2.88894,14.36488 8.14157,19.62033 5.25261,5.25543 12.16856,8.05833 19.52224,8.05833 h 30.64029 c 7.44122,0 14.26964,-2.8029 19.52226,-8.05833 5.25262,-5.25545 8.14157,-12.08752 8.14157,-19.62033 V 307.39158 c 0,-3.7226 -2.88895,-10.64227 -8.14157,-15.89771 -5.25262,-5.25545 -12.16858,-8.05835 -19.52226,-8.05835 z m 243.45905,107.21102 c -4.20208,4.20437 -6.56576,9.63499 -6.56576,15.67874 v 116.49564 c 0,5.95618 2.27613,11.3868 6.56576,15.67874 4.20211,4.20436 9.62982,6.4817 15.67033,6.4817 h 35.71784 c 5.95297,0 11.38067,-2.27734 15.67033,-6.4817 4.20209,-4.20435 6.56576,-9.63499 6.56576,-12.65686 V 403.3472 c 0,-2.97809 -2.27612,-8.40871 -6.56576,-12.70066 -4.20211,-4.20435 -9.62982,-6.4817 -15.67033,-6.4817 h -38.69432 c -2.9765,0 -8.4042,2.27735 -12.69385,6.4817 z" opacity="0.8" fill="#666666" isolation="auto" color-rendering="auto" white-space="normal" solid-opacity="1" mix-blend-mode="normal" color-interpolation-filters="linearRGB" shape-rendering="auto" image-rendering="auto" color-interpolation="sRGB" color="#000000" solid-color="#000000" stroke-width="0.93"/>
 <path id="path15140" d="M 423.82289,299.03078 169.8025,355.2599 c -13.07936,2.69751 -21.42382,15.58072 -18.54202,28.6274 2.88182,13.04668 15.87547,21.21158 28.87286,18.14295 l 254.75219,-56.05804 c 11.85669,-2.44542 20.02258,-13.36234 19.0244,-25.43357 -4.68694,-15.24197 -9.56252,-24.69419 -30.08704,-21.50786 z" fill="#666666" color="#000000" stroke-width="0.93"/>
 <path id="police" d="M 330.29532,31.865373 311.42703,50.733651 V 69.60195 H 424.63676 V 50.733651 l -18.8683,-18.868278 z m -18.86829,56.604853 c -0.62831,3.18359 0,6.406291 0,9.783571 0,27.016323 30.55362,46.821313 56.60487,46.821313 26.05126,0 56.60485,-19.80499 56.60485,-46.821313 0,-3.37728 0,-9.783571 0,-9.783571 z m -6.1e-4,75.473244 c -26.77239,0 -37.46819,35.40738 -37.73519,56.60439 v 74.19217 l 36.14343,-8.00042 95.93454,-122.79614 z m 122.64417,0 -90.01701,115.22128 118.31999,-26.19291 v -32.42398 c 0,-21.19906 -5.14858,-56.60439 -28.30298,-56.60439 z" fill="#666666" vector-effect="none"/>
</svg>
