<?xml version="1.0" encoding="UTF-8" standalone="no"?>
<svg
   width="32"
   height="32"
   version="1.1"
   id="svg12858"
   sodipodi:docname="charging.svg"
   inkscape:version="1.1.2 (0a00cf5339, 2022-02-04)"
   xmlns:inkscape="http://www.inkscape.org/namespaces/inkscape"
   xmlns:sodipodi="http://sodipodi.sourceforge.net/DTD/sodipodi-0.dtd"
   xmlns="http://www.w3.org/2000/svg"
   xmlns:svg="http://www.w3.org/2000/svg">
  <defs
     id="defs12862" />
  <sodipodi:namedview
     id="namedview12860"
     pagecolor="#505050"
     bordercolor="#eeeeee"
     borderopacity="1"
     inkscape:pageshadow="0"
     inkscape:pageopacity="0"
     inkscape:pagecheckerboard="0"
     showgrid="false"
     fit-margin-top="0"
     fit-margin-left="0"
     fit-margin-right="0"
     fit-margin-bottom="0"
     inkscape:zoom="4.3725425"
     inkscape:cx="-49.627876"
     inkscape:cy="4.116598"
     inkscape:window-width="1744"
     inkscape:window-height="917"
     inkscape:window-x="0"
     inkscape:window-y="0"
     inkscape:window-maximized="1"
     inkscape:current-layer="svg12858" />
  <style
     type="text/css"
     id="style12593">.st0{fill:#383838;} .st1{fill-rule:evenodd;clip-rule:evenodd;fill:#FCDB33;} .st2{fill-rule:evenodd;clip-rule:evenodd;fill:#FFFF00;}</style>
  <path
     class="st0"
     d="M 12.611008,1.1012206 23.760429,1.0011268 c 0.205624,-0.009765 0.416326,0.043944 0.601642,0.1611267 0.459482,0.2953988 0.583872,0.8959618 0.274166,1.3378394 l -5.823491,8.3590551 h 4.937529 v 0.0024 c 0.223394,0 0.449327,0.0708 0.637182,0.219718 0.42648,0.339342 0.489945,0.944788 0.137083,1.35737 L 8.9706915,30.648431 C 8.7016026,30.96336 8.2421205,31.090308 7.8257943,30.931623 7.3104635,30.736318 7.0591446,30.174816 7.2647692,29.679229 L 12.605931,16.747595 8.6025982,16.710975 C 8.4883623,16.718299 8.3741264,16.708534 8.257352,16.676797 7.7242513,16.530318 7.4145451,15.995671 7.5668596,15.482995 L 11.653965,1.8018774 h 0.0025 c 0.116774,-0.4003753 0.49756,-0.6957741 0.954504,-0.7006568 z"
     id="path12595"
     style="stroke-width:0.248947" />
  <polygon
     class="st1"
     points="5.27,60.4 27.11,60.61 3.95,118.93 65.22,44.34 38.35,44.34 65.43,3.95 21.37,4.36 "
     id="polygon12597"
     transform="matrix(0.25385749,0,0,0.24413129,7.1936891,1.0011268)"
     style="fill:#ff7f00;fill-opacity:1" />
  <polygon
     class="st2"
     points="6.23,60.09 27.24,60.57 3.95,118.93 35.21,55.03 16.58,51.85 33.9,4.52 21.66,4.75 "
     id="polygon12599"
     transform="matrix(0.25385749,0,0,0.24413129,7.1936891,1.0011268)"
     style="fill:#ffbe7f;fill-opacity:1" />
</svg>
