<?xml version="1.0" encoding="UTF-8" standalone="no"?>
<svg
   xmlns:dc="http://purl.org/dc/elements/1.1/"
   xmlns:cc="http://creativecommons.org/ns#"
   xmlns:rdf="http://www.w3.org/1999/02/22-rdf-syntax-ns#"
   xmlns:svg="http://www.w3.org/2000/svg"
   xmlns="http://www.w3.org/2000/svg"
   xmlns:sodipodi="http://sodipodi.sourceforge.net/DTD/sodipodi-0.dtd"
   xmlns:inkscape="http://www.inkscape.org/namespaces/inkscape"
   version="1.1"
   width="48"
   height="48"
   viewBox="0 0 144 144"
   id="svg68"
   sodipodi:docname="light.svg"
   inkscape:version="1.0.2 (e86c870879, 2021-01-15)">
  <metadata
     id="metadata74">
    <rdf:RDF>
      <cc:Work
         rdf:about="">
        <dc:format>image/svg+xml</dc:format>
        <dc:type
           rdf:resource="http://purl.org/dc/dcmitype/StillImage" />
        <dc:title></dc:title>
      </cc:Work>
    </rdf:RDF>
  </metadata>
  <defs
     id="defs72" />
  <sodipodi:namedview
     pagecolor="#ffffff"
     bordercolor="#666666"
     borderopacity="1"
     objecttolerance="10"
     gridtolerance="10"
     guidetolerance="10"
     inkscape:pageopacity="0"
     inkscape:pageshadow="2"
     inkscape:window-width="1600"
     inkscape:window-height="836"
     id="namedview70"
     showgrid="false"
     inkscape:zoom="7.3789708"
     inkscape:cx="33.697769"
     inkscape:cy="26.062375"
     inkscape:window-x="0"
     inkscape:window-y="0"
     inkscape:window-maximized="1"
     inkscape:current-layer="svg68" />
  <path
     d="m 71.9995,33.272501 a 38.726999,38.726999 0 0 1 38.727,38.726999 c 0,14.328989 -7.80995,26.850721 -19.363498,33.5634 v 11.6181 a 6.4544997,6.4544997 0 0 1 -6.454503,6.4545 H 59.090501 A 6.4544997,6.4544997 0 0 1 52.635998,117.181 V 105.5629 C 41.082446,98.850221 33.272501,86.328489 33.272501,71.9995 A 38.726999,38.726999 0 0 1 71.9995,33.272501 M 84.908499,130.09 v 6.4545 a 6.4544997,6.4544997 0 0 1 -6.454496,6.4545 H 65.544997 a 6.4544997,6.4544997 0 0 1 -6.454496,-6.4545 V 130.09 H 84.908499 M 123.6355,65.544997 H 142.999 V 78.454003 H 123.6355 V 65.544997 M 1,65.544997 H 20.363502 V 78.454003 H 1 V 65.544997 M 78.454003,1 V 20.363502 H 65.544997 V 1 H 78.454003 M 26.30164,17.13625 40.049725,30.948879 30.884338,40.049725 17.13625,26.366183 26.30164,17.13625 m 77.64764,13.748088 13.68354,-13.748088 9.22993,9.229933 -13.74809,13.683542 z"
     id="path66"
     style="stroke-width:6.4545" />
</svg>
