<?xml version="1.0" encoding="UTF-8" standalone="no"?>
<!-- Created with Inkscape (http://www.inkscape.org/) -->

<svg
   xmlns:dc="http://purl.org/dc/elements/1.1/"
   xmlns:cc="http://creativecommons.org/ns#"
   xmlns:rdf="http://www.w3.org/1999/02/22-rdf-syntax-ns#"
   xmlns:svg="http://www.w3.org/2000/svg"
   xmlns="http://www.w3.org/2000/svg"
   xmlns:sodipodi="http://sodipodi.sourceforge.net/DTD/sodipodi-0.dtd"
   xmlns:inkscape="http://www.inkscape.org/namespaces/inkscape"
   version="1.0"
   width="96"
   height="96"
   id="svg1920"
   inkscape:version="0.48.4 r9939"
   sodipodi:docname="ship.svg">
  <metadata
     id="metadata3093">
    <rdf:RDF>
      <cc:Work
         rdf:about="">
        <dc:format>image/svg+xml</dc:format>
        <dc:type
           rdf:resource="http://purl.org/dc/dcmitype/StillImage" />
        <dc:title></dc:title>
      </cc:Work>
    </rdf:RDF>
  </metadata>
  <sodipodi:namedview
     pagecolor="#ffffff"
     bordercolor="#666666"
     borderopacity="1"
     objecttolerance="10"
     gridtolerance="10"
     guidetolerance="10"
     inkscape:pageopacity="0"
     inkscape:pageshadow="2"
     inkscape:window-width="1920"
     inkscape:window-height="1056"
     id="namedview3091"
     showgrid="true"
     inkscape:zoom="7.0962472"
     inkscape:cx="33.455853"
     inkscape:cy="38.9298"
     inkscape:window-x="-8"
     inkscape:window-y="-4"
     inkscape:window-maximized="1"
     inkscape:current-layer="svg1920">
    <inkscape:grid
       type="xygrid"
       id="grid2990"
       empspacing="5"
       visible="true"
       enabled="true"
       snapvisiblegridlinesonly="true" />
  </sodipodi:namedview>
  <defs
     id="defs1923" />
  <path
     d="m 7.2396335,86.337961 0,-4.187406 0.8840083,-0.0045 c 1.3894528,-0.0071 2.4161942,-0.309588 4.4200412,-1.301977 3.512034,-1.739305 5.673285,-1.639575 10.328943,0.476648 3.597178,1.635093 6.25369,1.538577 10.439711,-0.379291 3.444576,-1.578165 5.133883,-1.545071 9.473737,0.185592 4.44898,1.774173 5.973014,1.774173 10.421995,0 4.336949,-1.729496 6.022331,-1.76321 9.473736,-0.18952 4.149422,1.891962 6.854952,2.011693 10.298545,0.455744 4.790923,-2.164726 6.974624,-2.294795 10.373235,-0.617877 2.058522,1.015704 3.247903,1.369947 4.609972,1.373027 l 0.977059,0.0022 0,4.187408 0,4.187409 -0.828319,0 c -1.394224,0 -2.727311,-0.366402 -4.396157,-1.208295 -2.087075,-1.052881 -3.299638,-1.397693 -4.905609,-1.394996 -1.621837,0.0028 -2.708407,0.28365 -4.881188,1.261997 -2.260641,1.017914 -3.609126,1.341294 -5.593163,1.341294 -1.964681,0 -2.965939,-0.265375 -5.636655,-1.493948 -2.618699,-1.204647 -3.814988,-1.427548 -5.651495,-1.053028 -0.772549,0.157546 -2.224763,0.63902 -3.227147,1.069942 -2.513992,1.080771 -3.586468,1.336437 -5.637706,1.343982 -2.069611,0.0075 -3.338056,-0.286787 -5.838301,-1.355011 -3.873138,-1.654782 -5.550191,-1.655101 -9.048276,-0.0017 -2.555258,1.207744 -3.600087,1.485512 -5.585198,1.484831 -2.001715,-7.49e-4 -3.444295,-0.341435 -5.520418,-1.303972 -2.098518,-0.972919 -3.346592,-1.296566 -4.999948,-1.296566 -1.611692,0 -2.842683,0.349241 -4.935133,1.400133 C 10.714574,90.094235 9.1406405,90.5255 7.8568276,90.5255 l -0.6171941,0 0,-4.187408 z M 7.0535271,74.241004 c 0,-3.904764 0.00916,-4.001302 0.3800601,-4.001302 1.0337761,0 3.4354428,-0.66756 5.0170438,-1.394519 2.336432,-1.073913 3.137201,-1.27391 5.024889,-1.255021 1.675464,0.01697 2.113136,0.126969 5.210996,1.312165 1.074768,0.411184 2.247243,0.775624 2.605498,0.80986 l 0.651375,0.06227 0.04829,-9.18825 0.04829,-9.188247 -3.11248,-7.183322 c -2.751176,-6.349474 -3.110861,-7.295392 -3.098525,-8.148738 0.01605,-1.103314 0.513735,-2.066585 1.390607,-2.690974 0.304698,-0.216964 1.45033,-0.754813 2.545848,-1.195221 l 1.991858,-0.800742 0.04917,-5.78712 0.04917,-5.787125 3.347276,0 3.347275,0 0,-3.070763 0,-3.070767 4.745726,0 4.745732,0 0,-4.094353 0,-4.0943544 5.955424,0 5.955425,0 0,4.0943544 0,4.094353 4.745729,0 4.745728,0 0,3.070767 0,3.070763 3.440328,0 3.44033,0 0.04917,5.799003 0.04917,5.799006 2.12321,0.89613 c 2.303442,0.972197 2.832943,1.35682 3.405581,2.473772 0.641396,1.251051 0.461598,1.853659 -2.798677,9.380141 l -3.009274,6.94704 0,9.398635 0,9.398639 0.604848,-0.127897 c 0.654618,-0.138405 1.507745,-0.439255 4.211998,-1.485328 3.06789,-1.186739 5.169847,-1.091884 8.396752,0.378909 1.97576,0.900532 3.674603,1.390834 4.819119,1.390834 l 0.76409,0 0,4.094354 c 0,4.678664 0.207079,4.269768 -1.932839,3.8164 -0.704808,-0.149315 -2.096769,-0.652601 -3.093246,-1.118408 -2.176756,-1.017526 -4.140521,-1.474618 -5.575373,-1.297744 -1.332268,0.164239 -3.189974,0.744832 -4.505105,1.408012 -1.643781,0.828919 -3.55424,1.286402 -5.361467,1.283887 -1.895559,-0.0028 -2.961685,-0.264581 -5.15156,-1.265708 -2.509312,-1.147157 -3.556662,-1.393042 -5.5337,-1.299138 -1.318184,0.06261 -1.963304,0.195857 -2.904293,0.599824 -3.664136,1.573061 -4.514799,1.831223 -6.32764,1.92031 -2.103056,0.103356 -3.336429,-0.170354 -5.832712,-1.294371 -2.203484,-0.992171 -3.259434,-1.259314 -4.988418,-1.261997 -1.628769,-0.0025 -3.309676,0.450688 -5.200187,1.402113 -1.647987,0.829368 -3.183712,1.201734 -4.942587,1.198424 -1.922001,-0.0035 -3.39582,-0.369099 -5.643912,-1.399582 -1.791708,-0.821288 -3.796618,-1.382811 -4.937325,-1.382811 -1.190113,0 -3.220559,0.585411 -5.104868,1.471812 -1.694586,0.797142 -3.4828809,1.305045 -4.6192114,1.311913 C 7.1071962,78.242018 7.0535,77.318715 7.0535,74.240995 z M 39.506636,25.667072 c 4.586273,-1.89364 8.411433,-3.44298 8.500361,-3.44298 0.08891,0 3.925659,1.54934 8.526066,3.44298 4.60041,1.893641 8.456088,3.442978 8.568175,3.442978 0.136767,0 0.203777,-0.764945 0.203777,-2.326334 l 0,-2.32634 -3.442978,0 -3.442983,0 0,-2.977714 0,-2.97771 -10.421993,0 -10.421992,0 0,2.973511 0,2.973517 -3.396452,0.05074 -3.396456,0.05074 -0.05225,2.279811 c -0.04099,1.788299 5.62e-4,2.279811 0.192913,2.279811 0.13482,0 3.997553,-1.549338 8.583823,-3.442979 z"
     style="fill:#000000"
     id="path1929"
     inkscape:connector-curvature="0" />
</svg>
