<?xml version="1.0" encoding="UTF-8" standalone="no"?>
<svg xmlns="http://www.w3.org/2000/svg" version="1.0" width="580" height="580">
 <metadata id="metadata10"/>
 <path d="M 433.45084,235.82238 H 146.16563 c -23.39706,0 -39.89007,18.02725 -39.89007,40.27363 v 219.39541 c 0,22.2464 18.41081,39.89007 40.27363,39.89007 h 287.28525 c 21.8628,0 39.89,-16.493 39.89,-39.89007 V 276.09601 c -0.3835,-22.24638 -18.0272,-40.27363 -40.2736,-40.27363 z m -1.9178,257.75125 H 147.69986 V 278.0138 H 431.53304 Z M 314.16422,151.43953 c -16.87658,-19.17792 10.35607,-42.95855 25.69845,-25.69842 l 22.2464,27.61621 -0.7671,-87.06776 c -0.3836,-28.76688 41.0407,-28.76688 41.4242,0 l -0.7671,87.06776 22.24637,-27.23265 c 15.3424,-16.87657 42.5749,6.5205 25.6984,25.69842 l -54.46527,64.43781 c -8.8218,8.43829 -19.945,8.43829 -28.3833,0 z M 128.90551,115.76859 182.60368,50.94722 c 8.82185,-8.43828 19.94504,-8.43828 28.38332,0 l 54.08174,64.43782 c 16.87657,19.17792 -10.35608,42.57499 -25.69841,25.69842 l -22.24639,-27.23266 0.76711,87.06777 c -0.38356,29.15043 -42.19142,28.76688 -41.80786,0 l 0.76712,-87.06777 -22.24639,27.61622 c -14.95878,17.26012 -42.57498,-6.52051 -25.69841,-25.69843 z m 214.02555,285.75103 v -52.93107 c 0,-6.13694 4.98628,-10.35608 10.35611,-10.35608 h 42.575 c 6.1369,0 10.3561,4.6027 10.3561,10.35608 v 52.93107 c 0,4.21913 -3.4521,7.2876 -7.2877,7.2876 h -4.6027 v 69.80763 c 0,12.65743 -18.4108,12.65743 -18.4108,0 v -69.80763 h -2.6849 v 69.80763 c 0,12.65743 -18.41076,12.65743 -18.41076,0 v -69.80763 h -4.60272 c -3.83559,0 -7.28763,-3.06847 -7.28763,-7.2876 z m 18.02731,-80.93083 c 0,-7.67117 6.1369,-13.8081 13.8081,-13.8081 7.6712,0 13.8081,6.13693 13.8081,13.8081 0,7.67116 -6.1369,13.8081 -13.8081,13.8081 -7.6712,0 -13.8081,-6.5205 -13.8081,-13.8081 z m -103.17724,80.93083 v -52.93107 c 0,-6.13694 4.98626,-10.35608 10.35608,-10.35608 h 42.57498 c 6.13693,0 10.35608,4.6027 10.35608,10.35608 v 52.93107 c 0,4.21913 -3.45203,7.2876 -7.28761,7.2876 h -4.6027 v 69.80763 c 0,12.65743 -18.41081,12.65743 -18.41081,0 v -69.80763 h -2.68491 v 69.80763 c 0,12.65743 -18.4108,12.65743 -18.4108,0 v -69.80763 h -4.21914 c -4.21914,0 -7.67117,-3.06847 -7.67117,-7.2876 z m 18.02724,-80.93083 c 0,-7.67117 6.13694,-13.8081 13.8081,-13.8081 7.67117,0 13.80811,6.13693 13.80811,13.8081 0,7.67116 -6.13694,13.8081 -13.80811,13.8081 -7.67116,0 -13.8081,-6.5205 -13.8081,-13.8081 z m -103.17721,80.93083 v -52.93107 c 0,-6.13694 4.98626,-10.35608 10.35608,-10.35608 h 42.95854 c 6.13694,0 10.35608,4.6027 10.35608,10.35608 v 52.93107 c 0,4.21913 -3.45203,7.2876 -7.28761,7.2876 h -4.6027 v 69.80763 c 0,12.65743 -18.41081,12.65743 -18.41081,0 v -69.80763 -1.91779 h -0.38356 v 1.91779 h -2.6849 v 69.80763 c 0,12.65743 -18.4108,12.65743 -18.4108,0 v -69.80763 h -4.21915 c -3.83558,0 -7.67117,-3.06847 -7.67117,-7.2876 z m 18.41081,-80.93083 c 0,-7.67117 6.13694,-13.8081 13.8081,-13.8081 7.67116,0 13.8081,6.13693 13.8081,13.8081 0,7.67116 -6.13694,13.8081 -13.8081,13.8081 -7.67116,0 -14.19166,-6.5205 -13.8081,-13.8081 z" id="path2-8" opacity="0.8" fill="none" stroke="#ffffff" vector-effect="none" stroke-linejoin="round" stroke-width="64"/>
 <path mix-blend-mode="normal" isolation="auto" id="path4164" d="m -695.95763,38.513559 c 0.41231,-7.42159 -3.20994,-15.180189 -10,-18.6 -6.91,-3.480218 -15.93493,-1.934074 -21,3 -6.5357,6.36668 -8.20606,17.6577 -2.5,24.9 12.49724,15.86188 32.71184,4.88692 33.5,-9.3 z m 117,5.3 -19.6,50.6 c -15.3,2.7 -24.7,18.800001 -22.9,33.600001 v 63 h 20 c 0.5,10.2 -1.3,20.7 1.6,30.6 5.4,14.9 29.4,14.8 34.7,-0.1 2.9,-9.9 1.1,-20.4 1.6,-30.5 h 136 c 0.5,10.2 -1.3,20.7 1.6,30.5 5.4,14.9 29,15 34.7,0.1 2.9,-9.9 1.2,-20.4 1.6,-30.6 h 20 c 0.2,-23.2 0.2,-47.2 0.2,-71.2 -1,-12 -11,-23.000001 -23,-25.000001 -7,-20 -15,-40 -22,-60 -6,-11 -18,-13 -29,-13 h -106 c -13.6,-0.9 -26,8.9 -29.5,22 z m 138.2,-2 c 10.9,0 12,12.4 15.5,20 l 12,32 h -164 c 5.8,-15.3 11.3,-30.9 17.4,-46 1.8,-3.8 5.8,-6.4 9.8,-6.2 36.292,0.41097 72.89879,0.2 109.3,0.2 z m -341.4,80.600001 c -0.3,7.6 10.4,10 15.7,4.7 5,-13.3 7,-21.3 11,-31.300001 2.4,-2.9 3.2,-2.9 2,0.9 -1.5,8.700001 -3.7,17.400001 -4.7,26.000001 0.6,16.7 0.9,33.5 1.4,50 -6.9,14.4 -10.2,23 -16.9,37 -7.8,18.1 16.2,29.1 24.2,8.1 6,-12.7 12.3,-25.4 18,-38 -0.2,-10.6 -0.3,-19 0,-30.6 l 19.3,25 c 1.7,17.8 3.4,35.4 5.1,50 3.4,14.2 22.5,9.9 20.8,-6.9 -2.2,-16.5 -3.2,-39.5 -6.2,-55.5 -7,-13 -16,-24 -24,-35 l 4,-19 c 5.3,5.5 11.4,10.2 17,15.4 12.9,13.3 23.3,-6.4 13.8,-12.5 -5.6,-5.1 -11.7,-9.9 -17,-15.000001 -4.1,-9.4 -8.2,-19 -12.4,-28 -5.3,-6.1 -11.4,-9.8 -18.3,-9.8 -6.8,-1.6 -31.5,17.9 -41.45,26.5 -4.45,12.7 -7.15,25.900001 -11.35,38.000001 z m 183.9,15.8 c -3.7,-11 5.1,-23.6 16.8,-23.3 14.5,-0.7 23,18.8 13.6,29.4 -8,11 -27,7 -30.4,-6.1 z m 174,0.1 c -3.7,-11 5.1,-23.6 16.8,-23.3 14.5,-0.7 23,18.8 13.6,29.4 -8,11 -27,7 -30.4,-6.1 z m -361.6,208.5 c 46.7,-25.8 103,-44 148,-31 45.9,14 84,47.6 131,57 53.8,13 110,-1.6 158,-26 -6,-17.2 -15.3,-35 -17.6,-42.6 -42.9,16.7 -97,30 -137,18.7 -66,-24.1 -106,-56.1 -168,-62.1 -48,0.7 -96,19.5 -136,45 2.2,7.8 17.4,36 21.6,41 z" solid-color="#000000" opacity="0.8" white-space="normal" color-interpolation-filters="linearRGB" color="#000000" image-rendering="auto" color-rendering="auto" stroke-width="64" color-interpolation="sRGB" solid-opacity="1" fill="none" stroke-linejoin="round" stroke="#ffffff" shape-rendering="auto"/>
 <path d="m -695.95763,38.513559 c 0.41231,-7.42159 -3.20994,-15.180189 -10,-18.6 -6.91,-3.480218 -15.93493,-1.934074 -21,3 -6.5357,6.36668 -8.20606,17.6577 -2.5,24.9 12.49724,15.86188 32.71184,4.88692 33.5,-9.3 z m 117,5.3 -19.6,50.6 c -15.3,2.7 -24.7,18.800001 -22.9,33.600001 v 63 h 20 c 0.5,10.2 -1.3,20.7 1.6,30.6 5.4,14.9 29.4,14.8 34.7,-0.1 2.9,-9.9 1.1,-20.4 1.6,-30.5 h 136 c 0.5,10.2 -1.3,20.7 1.6,30.5 5.4,14.9 29,15 34.7,0.1 2.9,-9.9 1.2,-20.4 1.6,-30.6 h 20 c 0.2,-23.2 0.2,-47.2 0.2,-71.2 -1,-12 -11,-23.000001 -23,-25.000001 -7,-20 -15,-40 -22,-60 -6,-11 -18,-13 -29,-13 h -106 c -13.6,-0.9 -26,8.9 -29.5,22 z m 138.2,-2 c 10.9,0 12,12.4 15.5,20 l 12,32 h -164 c 5.8,-15.3 11.3,-30.9 17.4,-46 1.8,-3.8 5.8,-6.4 9.8,-6.2 36.292,0.41097 72.89879,0.2 109.3,0.2 z m -341.4,80.600001 c -0.3,7.6 10.4,10 15.7,4.7 5,-13.3 7,-21.3 11,-31.300001 2.4,-2.9 3.2,-2.9 2,0.9 -1.5,8.700001 -3.7,17.400001 -4.7,26.000001 0.6,16.7 0.9,33.5 1.4,50 -6.9,14.4 -10.2,23 -16.9,37 -7.8,18.1 16.2,29.1 24.2,8.1 6,-12.7 12.3,-25.4 18,-38 -0.2,-10.6 -0.3,-19 0,-30.6 l 19.3,25 c 1.7,17.8 3.4,35.4 5.1,50 3.4,14.2 22.5,9.9 20.8,-6.9 -2.2,-16.5 -3.2,-39.5 -6.2,-55.5 -7,-13 -16,-24 -24,-35 l 4,-19 c 5.3,5.5 11.4,10.2 17,15.4 12.9,13.3 23.3,-6.4 13.8,-12.5 -5.6,-5.1 -11.7,-9.9 -17,-15.000001 -4.1,-9.4 -8.2,-19 -12.4,-28 -5.3,-6.1 -11.4,-9.8 -18.3,-9.8 -6.8,-1.6 -31.5,17.9 -41.45,26.5 -4.45,12.7 -7.15,25.900001 -11.35,38.000001 z m 183.9,15.8 c -3.7,-11 5.1,-23.6 16.8,-23.3 14.5,-0.7 23,18.8 13.6,29.4 -8,11 -27,7 -30.4,-6.1 z m 174,0.1 c -3.7,-11 5.1,-23.6 16.8,-23.3 14.5,-0.7 23,18.8 13.6,29.4 -8,11 -27,7 -30.4,-6.1 z m -361.6,208.5 c 46.7,-25.8 103,-44 148,-31 45.9,14 84,47.6 131,57 53.8,13 110,-1.6 158,-26 -6,-17.2 -15.3,-35 -17.6,-42.6 -42.9,16.7 -97,30 -137,18.7 -66,-24.1 -106,-56.1 -168,-62.1 -48,0.7 -96,19.5 -136,45 2.2,7.8 17.4,36 21.6,41 z" id="path3236" isolation="auto" mix-blend-mode="normal" fill="#0092da" color-rendering="auto" white-space="normal" solid-opacity="1" color-interpolation-filters="linearRGB" shape-rendering="auto" image-rendering="auto" color-interpolation="sRGB" color="#000000" solid-color="#000000"/>
 <path d="M 433.45084,235.82238 H 146.16563 c -23.39706,0 -39.89007,18.02725 -39.89007,40.27363 v 219.39541 c 0,22.2464 18.41081,39.89007 40.27363,39.89007 h 287.28525 c 21.8628,0 39.89,-16.493 39.89,-39.89007 V 276.09601 c -0.3835,-22.24638 -18.0272,-40.27363 -40.2736,-40.27363 z m -1.9178,257.75125 H 147.69986 V 278.0138 H 431.53304 Z M 314.16422,151.43953 c -16.87658,-19.17792 10.35607,-42.95855 25.69845,-25.69842 l 22.2464,27.61621 -0.7671,-87.067756 c -0.3836,-28.76688 41.0407,-28.76688 41.4242,0 l -0.7671,87.067756 22.24637,-27.23265 c 15.3424,-16.87657 42.5749,6.5205 25.6984,25.69842 l -54.46527,64.43781 c -8.8218,8.43829 -19.945,8.43829 -28.3833,0 z M 128.90551,115.76859 182.60368,50.947224 c 8.82185,-8.43828 19.94504,-8.43828 28.38332,0 l 54.08174,64.437816 c 16.87657,19.17792 -10.35608,42.57499 -25.69841,25.69842 l -22.24639,-27.23266 0.76711,87.06777 c -0.38356,29.15043 -42.19142,28.76688 -41.80786,0 l 0.76712,-87.06777 -22.24639,27.61622 c -14.95878,17.26012 -42.57498,-6.52051 -25.69841,-25.69843 z m 214.02555,285.75103 v -52.93107 c 0,-6.13694 4.98628,-10.35608 10.35611,-10.35608 h 42.575 c 6.1369,0 10.3561,4.6027 10.3561,10.35608 v 52.93107 c 0,4.21913 -3.4521,7.2876 -7.2877,7.2876 h -4.6027 v 69.80763 c 0,12.65743 -18.4108,12.65743 -18.4108,0 v -69.80763 h -2.6849 v 69.80763 c 0,12.65743 -18.41076,12.65743 -18.41076,0 v -69.80763 h -4.60272 c -3.83559,0 -7.28763,-3.06847 -7.28763,-7.2876 z m 18.02731,-80.93083 c 0,-7.67117 6.1369,-13.8081 13.8081,-13.8081 7.6712,0 13.8081,6.13693 13.8081,13.8081 0,7.67116 -6.1369,13.8081 -13.8081,13.8081 -7.6712,0 -13.8081,-6.5205 -13.8081,-13.8081 z m -103.17724,80.93083 v -52.93107 c 0,-6.13694 4.98626,-10.35608 10.35608,-10.35608 h 42.57498 c 6.13693,0 10.35608,4.6027 10.35608,10.35608 v 52.93107 c 0,4.21913 -3.45203,7.2876 -7.28761,7.2876 h -4.6027 v 69.80763 c 0,12.65743 -18.41081,12.65743 -18.41081,0 v -69.80763 h -2.68491 v 69.80763 c 0,12.65743 -18.4108,12.65743 -18.4108,0 v -69.80763 h -4.21914 c -4.21914,0 -7.67117,-3.06847 -7.67117,-7.2876 z m 18.02724,-80.93083 c 0,-7.67117 6.13694,-13.8081 13.8081,-13.8081 7.67117,0 13.80811,6.13693 13.80811,13.8081 0,7.67116 -6.13694,13.8081 -13.80811,13.8081 -7.67116,0 -13.8081,-6.5205 -13.8081,-13.8081 z m -103.17721,80.93083 v -52.93107 c 0,-6.13694 4.98626,-10.35608 10.35608,-10.35608 h 42.95854 c 6.13694,0 10.35608,4.6027 10.35608,10.35608 v 52.93107 c 0,4.21913 -3.45203,7.2876 -7.28761,7.2876 h -4.6027 v 69.80763 c 0,12.65743 -18.41081,12.65743 -18.41081,0 v -69.80763 -1.91779 h -0.38356 v 1.91779 h -2.6849 v 69.80763 c 0,12.65743 -18.4108,12.65743 -18.4108,0 v -69.80763 h -4.21915 c -3.83558,0 -7.67117,-3.06847 -7.67117,-7.2876 z m 18.41081,-80.93083 c 0,-7.67117 6.13694,-13.8081 13.8081,-13.8081 7.67116,0 13.8081,6.13693 13.8081,13.8081 0,7.67116 -6.13694,13.8081 -13.8081,13.8081 -7.67116,0 -14.19166,-6.5205 -13.8081,-13.8081 z" id="path2" fill="#0092da" vector-effect="none" stroke-width="0.88"/>
</svg>
